<?xml version="1.0" encoding="UTF-8" standalone="no"?>
<!-- Created with Inkscape (http://www.inkscape.org/) -->

<svg
   version="1.1"
   id="svg1"
   width="780"
   height="780"
   viewBox="0 0 780 780"
   xmlns="http://www.w3.org/2000/svg"
   xmlns:svg="http://www.w3.org/2000/svg">
  <defs
     id="defs1" />
  <g
     id="g1">
    <path
       style="fill:#7008E7"
       d="M 380.6391,759.982 C 364.31546,755.44205 176.9051,541.73511 122.1239,404.36736 51.457206,227.16529 155.86726,42.189793 344,11.286025 450.44378,-6.1990418 589.23751,44.102343 649.2995,166.59938 c 71.41556,142.0385 16.68052,290.91699 -197.81995,538.06729 -19.21736,19.62429 -41.50999,62.19824 -70.84045,55.31533 z m 62.02757,-309.04543 c 100.51751,-35.27374 144.16312,-149.58149 90.97752,-238.2699 -42.43708,-70.76494 -136.65214,-103.4461 -214.50654,-67.12411 -1.68565,0.78642 -40.96328,19.36621 -66.02157,54.54768 -54.71043,76.81265 -29.8573,163.15336 20.41043,212.67458 24.39171,23.42795 54.87561,38.73648 88.04071,44.73323 l -0.59012,-34.41569 c -0.47061,-27.44627 -1.06032,-36.03564 -2.91209,-42.41517 -10.62736,-36.61249 -39.78968,-61.23253 -42.34447,-62.00052 -0.62304,0 -5.02638,6 -9.7852,13.33333 -14.47249,22.30205 -16.57547,20.76119 -29.50725,-21.62014 -17.20365,-56.38149 -16.68286,-54.0695 -12.88843,-57.2166 2.46974,-2.0484 92.07902,-1.90351 94.24987,0.15239 4.82176,4.56646 -1.23455,14.36258 -15.44794,24.98714 l -3.65841,2.73467 c 8.80535,5.76947 26.88359,20.93878 41.29934,46.92829 5.3231,9.59678 0.11225,-0.0731 5.26371,9.57778 1.60825,3.01296 0.71501,2.41284 2.52225,-3.23532 4.65375,-14.54433 33.58404,-53.56509 74.69283,-64.81591 l 8.87202,-2.42812 0.37805,-15.80985 c 0.70002,-29.27438 2.99925,-28.8065 39.736,8.08603 32.67674,32.81531 32.40742,32.31765 22.28329,41.17485 -3.44813,3.01664 -13.50509,12.08479 -22.3488,20.15146 -30.40355,27.73216 -28.43394,26.19896 -33.07536,25.74687 -6.00122,-0.58453 -7.59658,-4.62279 -7.62019,-19.28871 -0.0186,-11.52447 -0.16823,-12.16966 -2.67132,-11.51508 -10.8223,7.59294 -22.68209,14.64872 -33.60617,28.90714 -16.94718,23.85815 -21.0755,40.0881 -21.0755,82.85548 v 31.03043 c 9.84948,-2.18635 19.75745,-4.23968 29.33334,-7.46623 z M 325.33333,707.33333 c 0,-0.36666 0.3,-0.66666 0.66667,-0.66666 0.36667,0 0.66667,0.3 0.66667,0.66666 0,0.36667 -0.3,0.66667 -0.66667,0.66667 -0.36667,0 -0.66667,-0.3 -0.66667,-0.66667 z M 536,44.666667 C 536,44.3 536.3,44 536.66667,44 c 0.36666,0 0.66666,0.3 0.66666,0.666667 0,0.366666 -0.3,0.666666 -0.66666,0.666666 -0.36667,0 -0.66667,-0.3 -0.66667,-0.666666 z"
       id="path1" />
  </g>
</svg>
